<?xml version="1.0" standalone="no"?>
<!DOCTYPE svg PUBLIC "-//W3C//DTD SVG 1.0//EN" "http://www.w3.org/TR/2001/REC-SVG-20010904/DTD/svg10.dtd">
<svg xmlns="http://www.w3.org/2000/svg" xmlns:xlink="http://www.w3.org/1999/xlink" id="body_1" width="144" height="144">

<g transform="matrix(0.5 0 0 0.5 0 0)">
	<g transform="matrix(0.72 0 0 0.72 -0 70.080124)">
        <path d="M122.558 2.131C 121.715 3.147 120.872 5.933 120.686 8.322C 120.47 11.087 119.556 12.823 118.173 13.098C 115.117 13.704 115.261 19.97 118.333 20.094C 120.329 20.174 120.28 20.353 118 21.333C 115.933 22.221 115.824 22.5 117.514 22.573C 118.713 22.624 121.713 21.737 124.18 20.601L124.18 20.601L128.667 18.535L124.667 19.213L120.667 19.89L124.665 18.076C 127.254 16.902 129.457 16.686 130.911 17.464C 132.147 18.126 139.047 18.783 146.246 18.925L146.246 18.925L159.333 19.183L146 20L132.667 20.817L145.667 21.075L158.667 21.333L158.979 79.667L159.292 138L160 78L160.708 18L161.021 77.667C 161.193 110.483 161.282 137.716 161.219 138.184C 161.077 139.25 164.218 141.292 166 141.292C 166.733 141.292 166.433 140.711 165.333 140C 163.935 139.096 163.847 138.701 165.042 138.687C 165.982 138.676 167.08 139.525 167.482 140.573C 167.885 141.622 170.055 143.122 172.306 143.907C 177.351 145.666 178.627 145.698 176 144C 174.777 143.209 174.621 142.7 175.6 142.687C 176.481 142.676 177.681 143.518 178.267 144.558C 178.854 145.599 182.506 147.699 186.383 149.225C 194.516 152.427 196.795 152.741 192 150C 187.608 147.489 189.139 147.498 195.171 150.018C 200.099 152.077 201.89 153.858 197.667 152.499C 195.839 151.911 195.736 152.035 197.192 153.071C 199.509 154.721 206.144 152.62 207.185 149.907C 207.587 148.858 208.685 148.009 209.625 148.02C 210.819 148.035 210.732 148.43 209.333 149.333C 207.867 150.281 207.801 150.631 209.088 150.646C 211.389 150.673 216.316 148.017 218 145.842C 219.403 144.03 226.667 140.895 226.667 142.102C 226.667 142.489 224.836 143.444 222.599 144.224C 220.361 145.003 218.782 145.893 219.09 146.201C 220.328 147.439 234.664 141.074 233.797 139.672C 233.215 138.729 233.705 138.524 235.184 139.091C 236.543 139.613 237.141 139.434 236.657 138.651C 236.209 137.926 236.478 137.333 237.255 137.333C 238.222 137.333 238.765 118.971 238.979 79L238.979 79L239.291 20.667L240 79.333L240.709 138L241.021 79.667L241.333 21.333L254.333 21.24C 261.483 21.188 268.372 20.734 269.642 20.231C 270.911 19.728 264.911 19.401 256.308 19.505L256.308 19.505L240.667 19.693L255.333 18.847C 263.4 18.381 270.75 17.515 271.667 16.921C 272.735 16.23 273.333 16.551 273.333 17.818C 273.333 19.743 282.178 23.6 283.518 22.26C 283.888 21.89 282.355 21.184 280.111 20.691C 277.867 20.198 275.703 19.265 275.303 18.618C 274.903 17.97 276.427 18.086 278.689 18.874C 283.283 20.476 283.323 20.459 284.541 16.489C 285.286 14.062 284.752 13.521 280.897 12.798C 276.956 12.058 276.46 11.527 277.013 8.634C 277.362 6.81 276.827 4.271 275.824 2.992C 274.172 0.886 274.22 0.839 276.333 2.497C 277.617 3.503 278.748 5.903 278.848 7.83C 279.019 11.124 279.065 11.147 279.622 8.223C 280.546 3.374 276.863 0.381 269.971 0.381C 263.319 0.381 260.841 2.346 261.716 6.927C 262.248 9.709 262.321 9.66 262.485 6.412C 262.744 1.292 264.667 0.748 264.667 5.794L264.667 5.794L264.667 10L201.667 10C 146.597 10 138.655 9.748 138.573 8C 138.512 6.704 138.111 6.939 137.433 8.667C 136.449 11.175 137.067 11.38 147.86 12.118L147.86 12.118L159.333 12.902L146.377 12.949C 134.286 12.993 133.506 12.835 134.71 10.586C 135.42 9.26 136.009 6.486 136.02 4.421C 136.037 1.404 136.319 1.06 137.455 2.667C 138.713 4.444 138.809 4.444 138.325 2.667C 137.587 -0.044 124.726 -0.481 122.558 2.131M124.004 4.655C 123.31 6.482 123.07 9.032 123.471 10.322C 124.138 12.463 124.076 12.474 122.76 10.439C 121.409 8.35 122.827 1.333 124.601 1.333C 124.967 1.333 124.699 2.828 124.004 4.655M132 6.444C 132 8.181 130.415 9.335 129.126 8.538C 127.747 7.686 128.936 5.333 130.745 5.333C 131.435 5.333 132 5.833 132 6.444M271.98 8.333C 271.963 10.759 271.712 10.951 270.667 9.333C 268.996 6.748 268.996 5.333 270.667 5.333C 271.4 5.333 271.991 6.683 271.98 8.333M219 11.664C 208.55 11.889 191.45 11.889 181 11.664C 170.55 11.438 179.1 11.254 200 11.254C 220.9 11.254 229.45 11.438 219 11.664M259.04 12.974C 255.946 13.254 250.546 13.257 247.04 12.982C 243.535 12.706 246.067 12.477 252.667 12.473C 259.267 12.469 262.135 12.695 259.04 12.974M207.778 54.646C 209.7 54.629 209.73 54.451 208 53.333C 206.537 52.388 207.532 52.035 211.709 52.02C 215.567 52.007 217.666 52.648 218.184 54C 218.607 55.1 219.732 56 220.684 56C 222.494 56 221.918 60.815 219.963 62.023C 219.387 62.379 219.26 61.352 219.682 59.74C 220.362 57.138 220.214 57.026 218.364 58.738C 217.218 59.799 216.524 61.07 216.821 61.563C 217.119 62.056 215.184 61.858 212.522 61.123C 208.946 60.136 207.286 60.214 206.173 61.423C 205.01 62.687 205.256 62.85 207.259 62.139C 209.713 61.267 209.73 61.351 207.592 63.714C 204.721 66.886 204.74 69.085 207.667 72.562L207.667 72.562L210 75.333L206.901 72.704C 204.85 70.963 203.996 69.061 204.375 67.078C 204.69 65.429 204.435 64.398 203.807 64.786C 201.641 66.125 202.679 69.867 206.249 73.594C 209.905 77.409 212.93 78.677 211.198 75.667C 210.641 74.698 210.748 74.466 211.453 75.111C 212.12 75.722 212.667 76.872 212.667 77.667C 212.667 78.461 213.5 79.389 214.519 79.729C 215.791 80.153 216.032 79.77 215.29 78.506C 214.695 77.495 215.573 77.865 217.241 79.33C 223.832 85.12 225.743 93.671 221.861 100C 220.511 102.201 220.132 102.427 220.746 100.667C 223.381 93.112 222.22 84.835 218.037 81.364C 216.902 80.422 217.18 81.752 218.772 84.872C 221.833 90.878 222.035 95.738 219.38 99.528C 218.306 101.062 217.746 102.635 218.136 103.025C 218.525 103.414 218.111 104.186 217.216 104.739C 216.176 105.382 215.931 105.19 216.539 104.206C 217.063 103.359 216.905 102.667 216.19 102.667C 215.474 102.667 214.644 103.401 214.345 104.298C 213.974 105.411 210.169 105.94 202.362 105.965C 196.07 105.984 191.515 105.633 192.24 105.186C 192.98 104.728 192.632 104.016 191.445 103.561C 190.039 103.021 189.298 103.516 189.228 105.042C 189.161 106.504 188.874 106.714 188.435 105.622C 188.057 104.681 188.456 103.057 189.322 102.014C 190.188 100.97 190.452 99.398 189.909 98.519C 189.264 97.477 189.488 97.271 190.552 97.929C 191.448 98.483 191.805 99.926 191.345 101.135C 190.69 102.856 190.861 102.984 192.131 101.723C 194.13 99.74 191.225 95.501 188.566 96.521C 187.645 96.874 185.192 96.601 183.113 95.913C 179.375 94.678 179.381 94.671 183.667 95.299C 186.05 95.648 188 95.348 188 94.633C 188 93.918 189.65 93.262 191.667 93.176L191.667 93.176L195.333 93.018L191.333 92C 189.133 91.44 188.308 90.911 189.5 90.824C 190.692 90.738 193.692 90.355 196.167 89.975C 199.665 89.436 200.073 89.564 198 90.547C 195.944 91.523 195.825 91.834 197.482 91.906C 199.04 91.974 199.496 93.007 199.141 95.667C 198.785 98.335 199.189 97.882 200.625 94L200.625 94L202.597 88.667L201.874 93.831C 201.155 98.968 201.173 98.993 205.284 98.39C 210.104 97.682 208.936 99.487 204 100.372C 200.815 100.944 200.835 100.978 204.436 101.152C 208.304 101.338 216 95.211 216 91.946C 216 89.23 205.512 79.646 203.419 80.449C 200.458 81.586 193.333 72.712 193.333 67.887C 193.333 62.667 196.575 56.489 200.347 54.52C 202.843 53.218 202.731 53.53 199.667 56.417C 194.801 61.002 194.974 62.346 199.926 58.435C 202.086 56.729 203.933 54.433 204.031 53.333C 204.155 51.948 204.417 51.846 204.883 53C 205.253 53.917 206.556 54.657 207.778 54.646M194.834 66.979C 194.707 70.751 195.556 72.867 198.333 75.71C 200.35 77.773 200.84 78.077 199.421 76.384C 198.003 74.691 196.428 70.762 195.921 67.653L195.921 67.653L195 62L194.834 66.979zM214.667 91.82C 214.667 92.372 213.734 93.988 212.593 95.412C 210.622 97.872 210.596 97.844 212.059 94.84C 213.348 92.194 213.127 91.002 210.702 87.507L210.702 87.507L207.805 83.333L211.236 87.074C 213.123 89.132 214.667 91.267 214.667 91.82M273.667 162.386C 270.495 171.928 269.937 176 271.798 176C 272.42 176 273.054 180.35 273.207 185.667C 273.36 190.983 273.901 195.756 274.409 196.273C 274.917 196.79 275.281 192.59 275.217 186.94C 275.152 181.24 275.299 179.931 275.547 184C 276.368 197.48 277.142 200 280.466 200C 284.206 200 293.105 191.314 290.45 190.255C 289.469 189.864 289.304 189.496 290.084 189.439C 290.863 189.381 293.263 191.281 295.417 193.662L295.417 193.662L299.333 197.99L295.333 194.667L291.333 191.343L295.249 195.672C 297.85 198.546 300.314 199.955 302.583 199.867L302.583 199.867L306 199.734L302.667 198.667C 299.421 197.627 299.413 197.591 302.333 197.3C 309.181 196.616 308.739 197.157 309.906 188.024C 311.087 178.79 309.803 179.785 308.106 189.42C 307.038 195.48 306.95 194.545 307.57 183.705C 308.601 165.679 307.652 161.333 302.685 161.333C 297.788 161.333 297.553 161.779 297.193 171.771L297.193 171.771L296.894 180.052L293.78 177.127C 290.442 173.99 289.701 172.579 292.206 174.127C 293.19 174.736 293.382 174.491 292.738 173.448C 292.184 172.552 290.927 172.127 289.944 172.504C 288.736 172.967 287.986 171.81 287.626 168.928C 287.182 165.375 287.058 165.622 286.88 170.412C 286.721 174.692 287.092 175.902 288.333 175.156C 289.294 174.579 289.153 175.203 288 176.63C 286.154 178.914 285.969 178.576 285.597 172.219C 285.35 167.999 284.576 165.325 283.597 165.313C 282.625 165.3 282.783 164.787 284 164C 285.333 163.138 285.444 162.701 284.333 162.687C 283.417 162.676 282.582 161.017 282.477 159C 282.33 156.142 282.078 156.51 281.333 160.667L281.333 160.667L280.378 166L280.189 161C 280.076 158.002 279.333 155.992 278.333 155.98C 277.222 155.966 277.333 155.528 278.667 154.667C 280.444 153.518 280.444 153.373 278.667 153.367C 277.379 153.362 275.598 156.573 273.667 162.386M272.217 159.39C 271.364 161.261 270.69 163.514 270.719 164.396C 270.748 165.278 271.657 163.959 272.739 161.465C 275.018 156.215 274.536 154.301 272.217 159.39M101.969 158.717C 101.533 159.423 102.511 160 104.144 160C 108.189 160 106.851 161.04 101.976 161.685C 98.276 162.174 97.988 162.619 97.821 168.105L97.821 168.105L97.641 174L98.517 168C 99.386 162.044 99.4 162.073 100.456 171.795C 101.041 177.183 101.178 181.933 100.76 182.351C 100.342 182.769 99.918 181.061 99.818 178.556C 99.694 175.432 99.455 174.943 99.059 177C 98.741 178.65 97.473 180.042 96.241 180.094C 94.431 180.169 94.512 180.408 96.667 181.333C 98.947 182.313 98.995 182.493 97 182.573C 93.931 182.696 94.017 186.218 97.316 195.606C 98.774 199.752 99.718 203.393 99.415 203.696C 99.112 203.999 97.794 201.234 96.486 197.551C 95.178 193.868 93.688 191.114 93.176 191.431C 91.187 192.66 98.351 204.742 101.195 204.956C 103.605 205.138 104.028 204.381 104.2 199.584L104.2 199.584L104.401 194L105.333 200C 105.955 204 106.333 204.778 106.466 202.333C 106.577 200.317 107.417 198.657 108.333 198.646C 109.444 198.633 109.333 198.195 108 197.333C 106.31 196.241 106.379 196.038 108.445 196.02C 110.658 196.002 111.197 171.658 109.203 161.779C 108.756 159.569 102.959 157.115 101.969 158.717M197.029 161.47C 196.695 163.744 196.738 167.194 197.124 169.136L197.124 169.136L197.825 172.667L198.78 169.333C 199.537 166.689 199.749 166.551 199.807 168.667C 199.847 170.133 199.056 173.133 198.048 175.333L198.048 175.333L196.217 179.333L196.108 175.667C 196.049 173.65 195.25 171.991 194.333 171.98C 193.222 171.966 193.333 171.528 194.667 170.667C 196.227 169.658 196.266 169.37 194.844 169.354C 193.061 169.334 193.156 167.948 195.346 162C 196.295 159.423 196.259 159.426 194.268 162.078C 193.134 163.587 191.957 166.887 191.65 169.411C 191.129 173.707 191.08 173.638 190.88 168.333C 190.659 162.462 188.954 161.361 183.386 163.498C 179.369 165.039 180.617 198.436 184.73 199.468C 188.163 200.33 191.113 199.135 190 197.333C 189.609 196.701 189.942 195.781 190.739 195.289C 191.633 194.736 191.873 192.274 191.367 188.863C 190.586 183.606 190.652 183.465 192.708 186C 196.413 190.569 199.168 196.438 197.11 195.379C 196.133 194.875 196.75 195.709 198.481 197.232C 205.925 203.779 208 199.621 208 178.154C 208 163.667 207.692 161.287 205.667 160.107C 204.383 159.359 203.963 158.73 204.733 158.707C 208.499 158.598 209.333 162.266 209.333 178.933C 209.333 188.32 209.783 196 210.333 196.001C 212.607 196.004 210.885 162.452 208.476 159.789C 207.207 158.387 205.53 157.503 204.751 157.825C 199.903 159.828 198.054 160.213 200 158.813C 201.749 157.555 201.726 157.372 199.818 157.354C 198.391 157.34 197.426 158.764 197.029 161.47M392 158.667C 390.5 159.636 391.167 159.959 394.667 159.959C 398.166 159.959 398.833 159.636 397.333 158.667C 396.233 157.956 395.033 157.374 394.667 157.374C 394.3 157.374 393.1 157.956 392 158.667M12.004 163.488C 5.956 168.953 5.258 172.772 9.44 177.519L9.44 177.519L12.214 180.667L10.107 177.37C 5.002 169.383 12.946 159.06 23.144 160.428C 26.673 160.902 27.863 160.729 26.597 159.929C 22.553 157.37 17.379 158.632 12.004 163.488M41.269 161.671C 34.709 166.092 32.103 171.509 31.568 181.839C 31.185 189.24 30.544 191.338 27.934 193.745L27.934 193.745L24.766 196.667L27.272 193.649C 30.72 189.498 30.457 183.367 26.656 179.322C 24.94 177.495 24.06 176 24.701 176C 25.342 176 25.147 175.28 24.267 174.4C 21.942 172.075 22.302 170.667 25.222 170.667C 26.769 170.667 28.351 169.219 29.23 167L29.23 167L30.683 163.333L29.99 167.333C 29.419 170.628 29.552 170.913 30.743 168.95C 33.454 164.481 32.108 163.407 21.705 161.739C 12.68 160.292 6.613 170.849 12.309 178.09C 13.945 180.17 14.667 181.491 13.912 181.024C 13.157 180.558 11.668 180.779 10.603 181.516C 9.176 182.503 9.807 182.716 13.002 182.325C 17.295 181.8 22.911 185.534 20.881 187.564C 20.396 188.048 19.958 187.594 19.906 186.556C 19.851 185.44 19.343 185.758 18.667 187.333C 17.616 189.779 17.513 189.724 17.421 186.667C 17.275 181.765 1.235 181.449 0.48 186.333C 0.211 188.078 0.71 189.342 1.675 189.354C 2.782 189.367 2.668 189.829 1.333 190.743C -0.176 191.775 0.356 191.969 3.505 191.531C 7.073 191.034 7.581 191.315 7.016 193.475C 6.543 195.283 7.063 196.006 8.844 196.02C 10.799 196.036 10.935 196.293 9.476 197.217C 8.316 197.951 10.976 198.295 16.558 198.131C 29.219 197.76 34.408 192.626 33.588 181.279C 33.057 173.95 35.247 166.78 38.659 164.671C 39.399 164.214 38.748 165.97 37.211 168.574C 34.924 172.451 34.554 174.698 35.165 180.987C 35.576 185.211 35.97 189.703 36.041 190.97C 36.175 193.358 41.964 198.667 44.435 198.667C 45.209 198.667 44.678 197.734 43.255 196.593C 40.793 194.621 40.82 194.594 43.816 196.053C 45.548 196.897 48.38 197.317 50.109 196.986C 51.838 196.656 52.935 196.899 52.548 197.526C 52.16 198.153 52.217 198.667 52.676 198.667C 54.817 198.667 58.509 195.764 60.661 192.387L60.661 192.387L63.034 188.667L58.522 192.667C 55.035 195.757 54.653 195.909 56.838 193.333C 63.096 185.958 64.479 177.507 60.635 170.135C 59.526 168.009 58.851 166.038 59.135 165.754C 60.855 164.033 64.238 175.721 63.685 181.476C 63.345 185.015 63.577 187.595 64.2 187.21C 69.095 184.184 62.212 162.831 56.341 162.831C 52.271 162.831 44.186 160.294 47.754 160.136C 49.453 160.061 52.153 160.633 53.754 161.407C 56.568 162.766 56.579 162.743 54.078 160.74C 50.483 157.859 46.495 158.149 41.269 161.671M71.132 163.092L66.303 167.517L66.303 179.337C 66.303 191.361 70.072 198.667 76.276 198.667C 77.138 198.667 76.678 197.734 75.255 196.593C 72.795 194.622 72.824 194.596 75.83 196.061C 77.569 196.908 80.869 197.242 83.163 196.803C 86.154 196.23 86.768 196.375 85.333 197.315C 84.233 198.036 84.017 198.635 84.852 198.646C 85.688 198.657 87.516 197.617 88.915 196.333C 90.314 195.05 90.531 194.582 89.396 195.293C 88.185 196.052 88.474 195.227 90.098 193.293C 93.761 188.929 94.314 182.099 90.933 182.983C 87.008 184.01 87.291 177.131 91.33 173.336C 95.442 169.473 95.502 167.884 91.667 164.431C 88.068 161.191 84.621 159.102 85.667 160.794C 86.077 161.457 83.799 162 80.606 162C 74.258 162 74.296 160.543 80.667 159.636L80.667 159.636L84.667 159.066L80.314 158.866C 77.074 158.718 74.725 159.799 71.132 163.092M123.661 162.333C 119.635 166.547 114.697 176.745 114.785 180.667C 114.818 182.133 115.6 180.933 116.523 178C 121.732 161.443 128.65 156.3 135.215 164.102C 137.113 166.359 138.667 167.741 138.667 167.175C 138.667 160.678 128.407 157.367 123.661 162.333M148.766 161.223C 147.426 162.705 146.702 165.088 147.045 166.89C 147.589 169.75 147.651 169.712 147.818 166.412C 147.918 164.439 148.536 162.493 149.191 162.088C 149.89 161.656 149.89 163.414 149.192 166.343C 147.067 175.263 147.949 198.603 150.376 197.671C 151.51 197.236 152.102 197.432 151.692 198.107C 151.282 198.781 151.852 200.171 152.958 201.194C 154.715 202.819 154.855 202.692 154.062 200.194C 153.52 198.488 153.728 197.333 154.577 197.333C 155.36 197.333 155.929 197.783 155.842 198.333C 155.367 201.344 156.317 202.677 159 202.76C 161.863 202.85 161.878 202.907 159.333 204C 157.652 204.722 157.406 205.146 158.667 205.146C 161.67 205.146 166.484 202.901 164 202.659C 161.642 202.429 170.408 198.87 173.333 198.87C 174.433 198.87 173.233 199.678 170.667 200.667C 168.1 201.655 166.711 202.509 167.58 202.565C 170.53 202.755 176.164 200.011 175.392 198.761C 174.969 198.077 175.243 197.135 176 196.667C 178.059 195.394 176.245 193.352 172.921 193.2C 170.202 193.077 170.23 192.994 173.333 192C 176.531 190.976 176.545 190.927 173.667 190.8C 171.785 190.716 170.635 189.797 170.582 188.333C 170.517 186.546 170.216 186.701 169.292 189C 167.797 192.718 166.67 192.942 167.614 189.333C 168.203 187.078 167.618 186.64 163.822 186.491L163.822 186.491L159.333 186.316L164 185.333L168.667 184.351L164.333 184.176C 160.588 184.024 159.974 183.503 159.811 180.333C 159.661 177.429 159.412 177.776 158.615 182C 158.039 185.05 157.913 181.767 158.32 174.333L158.32 174.333L159.032 161.333L155.183 161.176L151.333 161.018L155.333 160L159.333 158.982L155.207 158.824C 152.675 158.728 150.186 159.655 148.766 161.223M225.333 160.025L235.333 160.965L224.441 160.816C 218.45 160.734 213.595 160.967 213.653 161.333C 213.71 161.7 213.322 162.987 212.79 164.192C 211.953 166.09 212.464 192.228 213.432 197.057C 213.622 198.006 214.578 198.474 215.556 198.099C 216.597 197.7 217.372 198.367 217.427 199.709C 217.505 201.62 217.711 201.558 218.667 199.333C 219.647 197.053 219.826 197.005 219.906 199C 219.971 200.599 221.153 201.375 223.667 201.466L223.667 201.466L227.333 201.599L224 202.732C 221.762 203.493 222.857 203.608 227.333 203.084C 236.536 202.006 239.377 200.737 239.613 197.6C 239.794 195.2 235.012 192.426 231.803 193.069C 231.329 193.164 231.249 192.063 231.626 190.621C 232.172 188.533 231.601 187.966 228.822 187.833C 222.441 187.528 222.039 187.35 221.696 184.667C 221.446 182.705 221.617 182.529 222.345 184C 222.888 185.1 225.433 186.199 228 186.442C 233.305 186.944 232.205 184.621 226.667 183.628C 223.401 183.042 223.408 183.026 227 182.848C 230.252 182.687 230.667 182.15 230.667 178.093C 230.667 174.409 231.251 173.406 233.667 172.941C 235.317 172.623 233.667 172.187 230 171.972L230 171.972L223.333 171.581L230 170.791L236.667 170L236.667 164.667L236.667 159.333L226 159.209L215.333 159.085L225.333 160.025zM249 159.643C 252.117 159.924 257.217 159.924 260.333 159.643C 263.45 159.362 260.9 159.133 254.667 159.133C 248.433 159.133 245.883 159.362 249 159.643M300.333 159.586C 301.617 159.921 303.717 159.921 305 159.586C 306.283 159.25 305.233 158.976 302.667 158.976C 300.1 158.976 299.05 159.25 300.333 159.586M320.667 160.223C 316.953 162.276 312 166.897 312 168.307C 312 168.953 313.35 168.069 315 166.342C 316.65 164.616 317.193 164.242 316.207 165.513C 315.22 166.784 313.543 170.113 312.479 172.912C 310.777 177.388 310.614 177.519 311.125 174C 311.444 171.8 311.168 168.8 310.512 167.333C 309.732 165.592 309.578 167.443 310.067 172.667C 310.48 177.067 310.98 182.905 311.179 185.641C 312.152 199.016 325.438 203.384 336.034 193.811L336.034 193.811L341.333 189.023L341.333 192.734C 341.333 194.775 341.693 196.085 342.132 195.645C 342.572 195.206 342.501 192.302 341.976 189.191L341.976 189.191L341.021 183.537L339.359 187.435C 338.445 189.579 336.287 192.533 334.562 194C 331.801 196.349 331.852 196.145 334.994 192.294C 341.355 184.496 341.399 174.118 335.102 166.635C 333.265 164.452 332.266 162.648 332.881 162.624C 333.497 162.601 332.835 161.701 331.412 160.624C 328.363 158.318 324.379 158.169 320.667 160.223M346.82 159.877C 345.691 160.592 347.505 160.774 351.487 160.346C 355.069 159.96 358.25 159.425 358.556 159.156C 359.763 158.093 348.549 158.782 346.82 159.877M182.667 161.394C 181.206 162.383 181.745 162.506 184.667 161.853C 189.569 160.756 190.633 159.993 187.222 160.02C 185.817 160.032 183.767 160.65 182.667 161.394M241.506 166.333C 241.327 169.76 241.793 172 242.684 172C 243.494 172 243.75 171.34 243.251 170.534C 242.598 169.476 243.085 169.463 244.997 170.487C 246.456 171.267 248.01 171.546 248.45 171.105C 248.891 170.665 248.67 172.332 247.959 174.81C 245.785 182.392 246.28 186.667 249.333 186.667C 251.565 186.667 252 187.556 252 192.111C 252 200.032 254.438 198.35 260.584 186.189C 264.933 177.584 265.505 175.592 263.917 174.587C 262.383 173.616 262.532 173.344 264.667 173.221C 266.89 173.093 266.779 172.89 264 172C 260.897 171.006 260.869 170.923 263.588 170.8C 267.992 170.599 268.419 172.669 265.386 179.524C 263.873 182.946 262.86 185.971 263.136 186.247C 263.411 186.522 264.978 183.629 266.618 179.817C 269.883 172.227 270.52 164.224 267.982 162.656C 266.838 161.949 266.803 161.511 267.86 161.161C 268.683 160.889 263.156 160.667 255.579 160.667L255.579 160.667L241.801 160.667L241.506 166.333zM329.851 161.092C 330.222 161.693 328.758 161.925 326.596 161.607C 324.435 161.29 322.667 160.799 322.667 160.515C 322.667 159.499 329.19 160.023 329.851 161.092M356.667 160.885C 344.332 162.383 344.008 162.539 343.867 167.06C 343.794 169.411 343.312 172.833 342.796 174.667C 342.28 176.5 342.335 181 342.917 184.667C 343.5 188.333 344.11 192.983 344.272 195C 345.012 204.194 353.172 199.857 353.534 190.078L353.534 190.078L353.734 184.667L354.667 190.667C 355.565 196.443 356.779 193.839 356.183 187.416C 355.879 184.148 356.34 184.681 359.863 191.667C 362.995 197.878 362.629 199.565 359.429 193.667C 358.335 191.65 357.416 190.717 357.387 191.592C 357.262 195.308 363.447 200.428 366.988 199.539C 371.132 198.499 371.121 195.337 366.948 187.193L366.948 187.193L364.143 181.72L366.884 176.181C 369.978 169.927 368.332 165.127 362.256 162.679C 360.151 161.832 359.953 161.479 361.548 161.418C 362.766 161.371 365.316 163.179 367.215 165.436C 369.113 167.692 370.667 169.004 370.667 168.352C 370.667 166.685 363.454 159.958 361.927 160.2C 361.234 160.31 358.867 160.618 356.667 160.885M125.087 163.608C 121.757 167.404 119.047 173.48 116.774 182.252C 113.811 193.686 114.006 195.783 118.127 196.818C 120.683 197.459 121.118 197.983 119.793 198.823C 118.807 199.448 118.6 199.959 119.333 199.959C 121.558 199.959 123.308 198.145 123.795 195.333C 124.53 191.09 126.809 187.947 126.213 192C 125.943 193.833 125.979 194.583 126.292 193.667C 127.179 191.074 129.371 191.688 132.238 195.333C 134.101 197.702 136.086 198.636 139.097 198.561C 141.427 198.504 142.552 198.143 141.596 197.76C 140.21 197.205 140.247 196.754 141.777 195.532C 146.188 192.01 135.864 162.457 129.926 161.608C 128.419 161.392 126.242 162.292 125.087 163.608M160.413 168.667C 160.421 173.067 160.67 174.706 160.966 172.309C 161.263 169.913 161.257 166.313 160.953 164.309C 160.648 162.306 160.406 164.267 160.413 168.667M375.158 162.924C 373.471 165.613 374.038 193.667 375.848 197.05C 376.797 198.823 378.605 199.947 380.38 199.867C 383.147 199.743 383.123 199.671 380 198.737L380 198.737L376.667 197.74L380 197.204C 382.829 196.748 383.454 195.759 384.133 190.667C 384.959 184.47 385.814 185.737 385.358 192.484C 385.183 195.076 385.595 195.996 386.641 195.349C 387.489 194.825 387.805 193.408 387.345 192.198C 386.726 190.571 386.9 190.388 388.013 191.492C 388.841 192.313 389.669 194.011 389.853 195.266C 390.196 197.6 392.95 199.959 395.333 199.959C 396.067 199.959 395.86 199.448 394.873 198.823C 393.548 197.983 393.984 197.459 396.54 196.818C 400.955 195.71 400.894 194.949 395.73 186.641L395.73 186.641L391.459 179.771L394.594 173.862C 396.319 170.611 397.965 168.187 398.252 168.474C 398.54 168.762 397.444 171.253 395.818 174.01L395.818 174.01L392.86 179.022L395.961 184.869C 397.667 188.084 399.298 190.48 399.586 190.192C 399.873 189.905 398.796 187.445 397.192 184.727C 394.322 179.862 394.314 179.707 396.706 174.892C 401.106 166.032 400.654 161.333 395.4 161.333C 390.877 161.333 389.333 163.038 389.333 168.03C 389.333 169.394 388.842 170.813 388.241 171.184C 387.641 171.555 387.398 170.162 387.703 168.087C 388.015 165.961 387.534 163.869 386.6 163.292C 385.38 162.538 385.165 163.146 385.781 165.603C 386.242 167.437 386.179 169.377 385.642 169.913C 385.106 170.45 384.592 171.439 384.5 172.111C 384.097 175.063 383.743 175.171 382.667 172.667C 381.095 169.009 381.15 165.178 382.724 168.667C 383.684 170.794 383.867 170.389 383.63 166.667C 383.311 161.651 377.553 159.107 375.158 162.924M71.727 165C 70.616 166.283 69.041 168.533 68.227 170C 67.414 171.467 66.73 171.998 66.707 171.18C 66.663 169.548 71.725 162.667 72.97 162.667C 73.397 162.667 72.838 163.717 71.727 165M93.333 168.71C 93.333 169.607 92.337 171.164 91.119 172.17C 89.098 173.84 89.064 173.744 90.727 171.075C 92.325 168.508 92.229 167.772 89.941 165.075L89.941 165.075L87.333 162L90.333 164.54C 91.983 165.937 93.333 167.814 93.333 168.71M111.118 165.333C 111.583 167.167 112.041 174.967 112.135 182.667C 112.266 193.326 112.552 195.394 113.337 191.333C 114.471 185.458 112.98 164.485 111.319 162.961C 110.744 162.432 110.653 163.5 111.118 165.333M294.462 169.461C 294.208 173.198 294.45 176.533 295 176.873C 295.55 177.213 296 174.155 296 170.079C 296 160.798 295.076 160.427 294.462 169.461M336.548 166.769C 338.447 169.025 340.042 171.875 340.094 173.102C 340.247 176.759 342.486 170.617 342.44 166.667L342.44 166.667L342.401 163.333L341.493 166.583L340.586 169.832L337.768 166.249C 336.218 164.279 334.533 162.667 334.023 162.667C 333.513 162.667 334.65 164.513 336.548 166.769M372 165.223C 372 166.629 370.676 170.679 369.058 174.223C 364.87 183.396 364.775 183.805 367.875 179.333L367.875 179.333L370.649 175.333L370.676 180C 370.691 182.567 371.029 186.167 371.428 188C 372.142 191.283 372.121 191.278 370.034 187.667C 366.711 181.916 366.299 183.378 369.47 189.667C 371.042 192.783 372.453 195.482 372.606 195.665C 372.76 195.847 372.836 188.497 372.776 179.331C 372.716 170.166 372.517 162.667 372.333 162.667C 372.15 162.667 372 163.817 372 165.223M179.066 170.667C 179.066 174.7 179.316 176.35 179.622 174.333C 179.927 172.317 179.927 169.017 179.622 167C 179.316 164.983 179.066 166.633 179.066 170.667M356.421 169.467C 356.86 171.146 357.768 171.889 358.687 171.321C 359.53 170.8 359.194 172.389 357.941 174.853C 355.34 179.963 353.839 181.79 355.078 178.335C 355.539 177.052 355.372 174.652 354.709 173.001C 353.658 170.388 353.491 170.331 353.418 172.556C 353.371 173.961 353.004 174.782 352.602 174.38C 351.594 173.371 353.379 166.667 354.656 166.667C 355.224 166.667 356.019 167.927 356.421 169.467M47.346 170.646C 46.9 171.368 46.03 174.518 45.413 177.646C 44.613 181.708 44.25 182.31 44.146 179.753C 43.992 175.983 46.055 169.333 47.379 169.333C 47.807 169.333 47.792 169.924 47.346 170.646M50 172C 49.534 173.467 49.76 174.667 50.5 174.667C 51.818 174.667 51.708 176.639 50.093 182C 49.651 183.467 50.484 182.267 51.943 179.333C 53.403 176.4 54.585 174.9 54.571 176C 54.512 180.723 48.135 190.365 47.958 186C 47.869 183.8 47.554 180.8 47.257 179.333C 46.961 177.867 47.38 175.017 48.188 173C 49.878 168.782 51.264 168.017 50 172M129.667 171.627C 128.75 171.954 127.918 173.822 127.818 175.778C 127.653 179.024 127.586 179.066 127.049 176.26C 126.451 173.127 129.053 168.55 130.523 170.15C 130.969 170.635 130.583 171.3 129.667 171.627M138.758 169.333C 138.749 169.7 139.923 173.3 141.367 177.333C 143.193 182.435 143.743 183.246 143.172 180C 142.486 176.101 138.808 167.213 138.758 169.333M323.422 175.576C 322.618 179.108 321.829 180.662 321.606 179.156C 321.244 176.707 323.333 169.333 324.389 169.333C 324.64 169.333 324.204 172.143 323.422 175.576M327.333 172C 326.868 173.467 327.086 174.667 327.817 174.667C 328.683 174.667 328.715 176.175 327.907 178.991C 326.105 185.274 326.527 185.369 329.429 179.333C 330.84 176.4 331.63 175.5 331.186 177.333C 330.741 179.167 329.252 182.467 327.878 184.667L327.878 184.667L325.378 188.667L325.254 185.333C 325.185 183.5 324.887 180.8 324.591 179.333C 324.294 177.867 324.713 175.017 325.521 173C 327.211 168.782 328.598 168.017 327.333 172M86.007 178.115C 86.324 180.985 86.267 182.133 85.881 180.667C 85.495 179.2 84.597 176.214 83.886 174.03C 82.974 171.226 83.01 170.477 84.012 171.479C 84.792 172.259 85.69 175.245 86.007 178.115M145.073 178.333C 144.93 182.55 144.715 188.25 144.596 191C 144.476 193.75 144.893 196 145.523 196C 146.152 196 146.667 190.3 146.667 183.333C 146.667 169.575 145.495 165.899 145.073 178.333M244.843 176.12C 244.379 178.438 244.07 181.908 244.156 183.833C 244.242 185.758 244.85 184.092 245.508 180.129C 246.79 172.404 246.244 169.113 244.843 176.12M131.98 174.778C 131.991 173.739 132.309 173.198 132.687 173.576C 133.065 173.954 132.52 176.294 131.477 178.776L131.477 178.776L129.58 183.288L129.72 178.325C 129.804 175.359 130.283 174.027 130.91 175.015C 131.704 176.265 131.964 176.208 131.98 174.778M79.342 185.333C 79.796 188.52 79.733 188.553 77.909 186.078C 76.859 184.655 76.052 181.355 76.115 178.745L76.115 178.745L76.229 174L77.548 178C 78.274 180.2 79.081 183.5 79.342 185.333M179.066 189.333C 179.066 193.367 179.316 195.017 179.622 193C 179.927 190.983 179.927 187.683 179.622 185.667C 179.316 183.65 179.066 185.3 179.066 189.333M69.816 191.333L72.158 195.333L69.412 192.186C 67.902 190.454 66.667 188.404 66.667 187.63C 66.667 185.99 66.733 186.069 69.816 191.333M315.149 191.333L317.492 195.333L314.746 192.186C 313.236 190.454 312 188.404 312 187.63C 312 185.99 312.067 186.069 315.149 191.333M192.667 191.806C 192.667 194.342 193.237 195.442 194.333 195.021C 195.25 194.669 196 193.96 196 193.446C 196 192.931 195.25 191.484 194.333 190.23C 192.859 188.214 192.667 188.395 192.667 191.806M247.546 189.025C 248.397 189.566 249.357 191.807 249.68 194.004C 250.212 197.628 250.286 197.535 250.467 193C 250.625 189.044 250.179 188.004 248.333 188.02C 246.819 188.034 246.542 188.386 247.546 189.025M259.375 191.919C 258.261 194.075 256.012 196.775 254.378 197.919C 252.744 199.064 252.036 200 252.804 200C 253.573 200 255.431 198.65 256.934 197C 259.893 193.752 263.182 188 262.081 188C 261.708 188 260.49 189.764 259.375 191.919M286.667 195.333C 284.944 197.167 282.29 198.585 280.768 198.485C 278.07 198.308 278.072 198.289 280.861 197.744C 282.434 197.436 284.777 196.018 286.067 194.592C 287.358 193.166 288.725 192 289.106 192C 289.487 192 288.389 193.5 286.667 195.333M327.889 198.188C 329.227 199.341 323.134 198.491 321.333 197.272C 319.873 196.284 320.412 196.16 323.333 196.814C 325.533 197.306 327.583 197.924 327.889 198.188" stroke="none" fill="#FFFFFF" fill-rule="nonzero" />
	</g>
</g>
</svg>