<?xml version="1.0" standalone="no"?>
<!DOCTYPE svg PUBLIC "-//W3C//DTD SVG 1.0//EN" "http://www.w3.org/TR/2001/REC-SVG-20010904/DTD/svg10.dtd">
<svg xmlns="http://www.w3.org/2000/svg" xmlns:xlink="http://www.w3.org/1999/xlink" id="body_1" width="348" height="178">

<g transform="matrix(0.6641791 0 0 0.6641791 1.9627012 -0)">
	<g transform="matrix(0.1 0 -0 -0.1 0 268)">
        <path d="M2467 2083C 2455 2071 2460 2050 2475 2050C 2483 2050 2497 2039 2506 2025C 2522 2000 2550 1991 2550 2010C 2550 2020 2486 2090 2477 2090C 2475 2090 2470 2087 2467 2083z" stroke="none" fill="#000000" fill-rule="nonzero" />
        <path d="M2565 2080C 2561 2074 2575 2054 2597 2035L2597 2035L2635 2002L2610 1975C 2588 1951 2580 1949 2538 1954C 2496 1958 2490 1957 2490 1940C 2490 1923 2496 1922 2543 1927C 2584 1931 2602 1939 2629 1966L2629 1966L2663 1999L2625 2042C 2581 2091 2574 2095 2565 2080z" stroke="none" fill="#000000" fill-rule="nonzero" />
        <path d="M2388 1958C 2392 1859 2393 1854 2423 1823C 2451 1793 2459 1790 2515 1790C 2575 1790 2576 1790 2629 1736L2629 1736L2681 1683L2679 1544C 2677 1431 2679 1404 2691 1402C 2703 1400 2704 1424 2702 1547L2702 1547L2698 1695L2647 1748C 2596 1800 2595 1800 2534 1800C 2481 1800 2467 1804 2440 1827L2440 1827L2408 1853L2411 1954C 2413 2037 2411 2055 2399 2058C 2387 2060 2385 2045 2388 1958z" stroke="none" fill="#000000" fill-rule="nonzero" />
        <path d="M2697 2054C 2694 2051 2694 2034 2696 2017C 2701 1989 2695 1979 2647 1931C 2591 1876 2576 1872 2511 1891C 2503 1893 2495 1888 2493 1878C 2489 1864 2497 1862 2552 1867C 2612 1872 2618 1875 2666 1924C 2707 1964 2719 1984 2724 2018C 2729 2050 2727 2060 2717 2060C 2709 2060 2701 2057 2697 2054z" stroke="none" fill="#000000" fill-rule="nonzero" />
        <path d="M2786 1963C 2791 1912 2790 1903 2771 1886C 2753 1869 2750 1856 2750 1780C 2750 1730 2745 1689 2739 1683C 2726 1670 2735 1650 2754 1650C 2764 1650 2766 1671 2762 1745C 2758 1831 2759 1843 2777 1863C 2803 1892 2818 2020 2795 2020C 2783 2020 2781 2009 2786 1963z" stroke="none" fill="#000000" fill-rule="nonzero" />
        <path d="M2257 1963C 2244 1951 2250 1941 2278 1928C 2297 1919 2306 1906 2308 1884C 2310 1865 2323 1841 2341 1824C 2357 1809 2370 1790 2370 1782C 2370 1766 2402 1770 2408 1787C 2410 1794 2403 1803 2393 1806C 2360 1818 2330 1853 2330 1880C 2330 1895 2321 1915 2310 1925C 2299 1935 2290 1949 2290 1957C 2290 1971 2268 1975 2257 1963z" stroke="none" fill="#000000" fill-rule="nonzero" />
        <path d="M2865 1950C 2862 1945 2861 1931 2865 1921C 2869 1907 2861 1895 2838 1876C 2812 1856 2808 1848 2818 1838C 2828 1828 2836 1833 2860 1860C 2876 1879 2890 1903 2891 1913C 2892 1922 2893 1935 2894 1942C 2895 1957 2874 1964 2865 1950zM2840 1850C 2840 1845 2836 1840 2830 1840C 2825 1840 2820 1845 2820 1850C 2820 1856 2825 1860 2830 1860C 2836 1860 2840 1856 2840 1850z" stroke="none" fill="#000000" fill-rule="nonzero" />
        <path d="M2673 1873C 2666 1858 2660 1841 2660 1835C 2660 1811 2686 1770 2699 1772C 2722 1777 2724 1801 2701 1807C 2687 1810 2680 1820 2680 1835C 2680 1850 2687 1860 2701 1863C 2713 1866 2720 1875 2718 1882C 2710 1906 2685 1901 2673 1873z" stroke="none" fill="#000000" fill-rule="nonzero" />
        <path d="M2202 1878C 2196 1872 2221 1841 2274 1789L2274 1789L2355 1711L2456 1710L2556 1710L2589 1676C 2622 1642 2622 1642 2619 1554C 2616 1481 2618 1465 2630 1465C 2642 1465 2644 1481 2642 1555L2642 1555L2638 1645L2597 1688L2556 1730L2459 1730L2363 1730L2287 1809C 2238 1860 2208 1884 2202 1878z" stroke="none" fill="#000000" fill-rule="nonzero" />
        <path d="M2863 1821C 2811 1764 2810 1763 2810 1700C 2810 1641 2807 1633 2776 1600L2776 1600L2741 1565L2739 1455C 2737 1367 2739 1345 2750 1345C 2761 1345 2763 1366 2761 1450L2761 1450L2759 1555L2789 1584C 2817 1611 2820 1619 2820 1680C 2820 1745 2820 1746 2868 1793C 2894 1819 2921 1840 2928 1840C 2935 1840 2940 1849 2940 1860C 2940 1892 2918 1881 2863 1821z" stroke="none" fill="#000000" fill-rule="nonzero" />
        <path d="M2177 1793C 2166 1782 2169 1760 2182 1760C 2189 1760 2222 1733 2255 1701L2255 1701L2315 1642L2418 1638C 2506 1635 2520 1636 2520 1650C 2520 1663 2506 1665 2422 1662L2422 1662L2324 1658L2257 1729C 2186 1804 2187 1804 2177 1793z" stroke="none" fill="#000000" fill-rule="nonzero" />
        <path d="M2950 1789C 2950 1782 2932 1758 2911 1735C 2866 1689 2852 1638 2884 1632C 2900 1629 2902 1632 2896 1655C 2888 1687 2927 1746 2967 1761C 2980 1766 2990 1776 2987 1783C 2982 1800 2950 1805 2950 1789z" stroke="none" fill="#000000" fill-rule="nonzero" />
        <path d="M2966 1696C 2957 1682 2950 1653 2950 1630L2950 1630L2950 1590L2907 1590C 2873 1590 2858 1584 2838 1563C 2814 1537 2812 1527 2808 1417C 2804 1314 2806 1300 2819 1303C 2828 1305 2833 1313 2830 1321C 2828 1329 2824 1375 2822 1424C 2819 1512 2819 1513 2851 1546C 2878 1574 2891 1580 2927 1580L2927 1580L2970 1580L2970 1624C 2970 1657 2975 1671 2991 1682C 3010 1694 3010 1697 2997 1708C 2985 1718 2980 1716 2966 1696z" stroke="none" fill="#000000" fill-rule="nonzero" />
        <path d="M2134 1699C 2131 1693 2133 1683 2139 1677C 2145 1671 2150 1651 2150 1632C 2150 1597 2203 1521 2228 1520C 2251 1520 2240 1543 2199 1578C 2159 1613 2158 1614 2164 1662C 2169 1701 2168 1710 2156 1710C 2148 1710 2138 1705 2134 1699z" stroke="none" fill="#000000" fill-rule="nonzero" />
        <path d="M2210 1635C 2210 1626 2218 1617 2228 1613C 2252 1605 2410 1448 2410 1433C 2410 1426 2419 1420 2430 1420C 2441 1420 2450 1427 2450 1435C 2450 1443 2444 1450 2437 1450C 2421 1450 2250 1621 2250 1638C 2250 1644 2241 1650 2230 1650C 2219 1650 2210 1643 2210 1635z" stroke="none" fill="#000000" fill-rule="nonzero" />
        <path d="M2367 1603C 2363 1600 2360 1590 2360 1582C 2360 1571 2368 1569 2396 1574C 2431 1581 2432 1581 2428 1548C 2426 1522 2429 1515 2444 1512C 2459 1509 2462 1512 2457 1531C 2453 1544 2450 1563 2450 1573C 2450 1584 2442 1590 2426 1590C 2412 1590 2398 1595 2395 1600C 2388 1612 2376 1613 2367 1603z" stroke="none" fill="#000000" fill-rule="nonzero" />
        <path d="M2559 1602C 2558 1598 2559 1535 2560 1461L2560 1461L2562 1327L2514 1279L2466 1230L2507 1230C 2530 1230 2552 1225 2555 1220C 2560 1212 2566 1213 2576 1221C 2598 1239 2581 1251 2542 1244L2542 1244L2505 1238L2537 1271L2569 1305L2572 1435C 2574 1507 2579 1572 2583 1581C 2589 1592 2586 1599 2576 1603C 2567 1607 2560 1606 2559 1602z" stroke="none" fill="#000000" fill-rule="nonzero" />
        <path d="M2499 1584C 2498 1579 2498 1524 2500 1462C 2502 1350 2502 1348 2474 1319C 2459 1303 2440 1290 2433 1290C 2426 1290 2420 1281 2420 1270C 2420 1243 2447 1245 2461 1273C 2467 1285 2481 1304 2490 1315C 2505 1331 2509 1357 2512 1457C 2513 1524 2512 1582 2508 1586C 2503 1590 2499 1589 2499 1584z" stroke="none" fill="#000000" fill-rule="nonzero" />
        <path d="M2920 1533C 2881 1525 2870 1511 2870 1464C 2870 1412 2886 1367 2903 1373C 2924 1380 2922 1407 2900 1413C 2884 1417 2880 1426 2880 1458C 2880 1508 2897 1523 2944 1514C 2973 1509 2980 1511 2980 1524C 2980 1540 2969 1542 2920 1533z" stroke="none" fill="#000000" fill-rule="nonzero" />
        <path d="M2275 1481C 2272 1475 2301 1441 2340 1404C 2396 1351 2408 1335 2399 1324C 2393 1316 2381 1310 2374 1310C 2366 1310 2360 1301 2360 1290C 2360 1279 2367 1270 2375 1270C 2383 1270 2390 1275 2390 1282C 2390 1288 2400 1304 2412 1317L2412 1317L2433 1340L2364 1412C 2287 1493 2284 1495 2275 1481z" stroke="none" fill="#000000" fill-rule="nonzero" />
        <path d="M2197 1463C 2185 1452 2189 1430 2203 1430C 2220 1430 2290 1358 2290 1341C 2290 1323 2314 1333 2318 1353C 2320 1362 2315 1370 2308 1370C 2292 1370 2236 1427 2227 1453C 2220 1471 2208 1475 2197 1463z" stroke="none" fill="#000000" fill-rule="nonzero" />
        <path d="M2618 1313C 2613 1216 2614 1208 2634 1216C 2644 1220 2646 1238 2643 1288L2643 1288L2639 1355L2689 1302C 2717 1273 2745 1252 2750 1255C 2765 1264 2763 1267 2689 1338L2689 1338L2622 1401L2618 1313z" stroke="none" fill="#000000" fill-rule="nonzero" />
        <path d="M1092 944C 1055 918 1066 881 1120 850C 1172 820 1187 777 1151 765C 1129 758 1090 775 1090 790C 1090 796 1086 800 1080 800C 1064 800 1069 763 1086 756C 1121 743 1177 750 1195 770C 1222 800 1205 838 1150 870C 1096 902 1089 933 1135 938C 1154 941 1168 936 1177 924C 1189 907 1190 907 1190 927C 1190 962 1132 972 1092 944z" stroke="none" fill="#000000" fill-rule="nonzero" />
        <path d="M1298 931C 1269 905 1265 896 1265 850C 1265 804 1269 795 1298 769C 1334 737 1367 733 1410 755C 1448 775 1460 798 1460 855C 1460 950 1367 993 1298 931zM1418 899C 1446 847 1413 760 1365 760C 1296 760 1278 907 1343 938C 1369 950 1399 935 1418 899z" stroke="none" fill="#000000" fill-rule="nonzero" />
        <path d="M1554 926C 1527 899 1520 884 1520 852C 1520 777 1587 727 1661 749C 1693 759 1700 765 1700 787L1700 787L1700 813L1675 786C 1645 753 1616 753 1585 785C 1534 835 1565 940 1631 940C 1649 940 1664 933 1672 920C 1688 895 1700 894 1700 920C 1700 945 1671 960 1625 960C 1596 960 1580 952 1554 926z" stroke="none" fill="#000000" fill-rule="nonzero" />
        <path d="M1758 855C 1761 764 1764 750 1778 750C 1793 750 1795 761 1792 841C 1790 901 1793 936 1800 946C 1810 958 1808 960 1784 960L1784 960L1755 960L1758 855z" stroke="none" fill="#000000" fill-rule="nonzero" />
        <path d="M1963 952C 1956 948 1933 900 1911 847C 1876 761 1873 750 1890 750C 1902 750 1910 760 1914 785C 1921 819 1922 820 1970 820C 2018 820 2019 819 2026 785C 2031 756 2037 750 2056 750C 2079 750 2080 751 2067 778C 2059 793 2040 840 2025 883C 1998 958 1989 968 1963 952zM1992 886C 2001 862 2006 839 2003 836C 1999 833 1981 830 1962 830C 1939 830 1929 834 1933 843C 1935 849 1943 872 1951 893C 1958 913 1967 930 1970 930C 1973 930 1983 910 1992 886z" stroke="none" fill="#000000" fill-rule="nonzero" />
        <path d="M2135 855L2135 750L2203 750C 2265 750 2270 752 2270 772C 2270 789 2267 791 2258 782C 2251 775 2229 770 2207 770L2207 770L2169 770L2172 865C 2175 954 2174 960 2155 960C 2136 960 2135 953 2135 855z" stroke="none" fill="#000000" fill-rule="nonzero" />
        <path d="M2690 946C 2697 936 2700 901 2698 841L2698 841L2695 750L2763 750C 2817 750 2830 753 2830 765C 2830 777 2826 778 2811 770C 2800 765 2778 760 2761 760C 2731 760 2730 761 2730 806L2730 806L2730 853L2770 847C 2797 844 2810 846 2810 854C 2810 861 2796 864 2770 862L2770 862L2730 858L2730 899C 2730 940 2730 940 2768 940C 2789 940 2811 935 2818 928C 2827 919 2830 921 2830 938C 2830 959 2826 960 2754 960C 2689 960 2679 958 2690 946z" stroke="none" fill="#000000" fill-rule="nonzero" />
        <path d="M2880 938C 2880 921 2883 919 2892 928C 2899 935 2912 940 2923 940C 2940 940 2941 932 2938 845C 2935 756 2936 750 2955 750C 2974 750 2975 756 2972 845C 2969 932 2970 940 2987 940C 2998 940 3011 935 3018 928C 3027 919 3030 921 3030 938C 3030 959 3026 960 2955 960C 2884 960 2880 959 2880 938z" stroke="none" fill="#000000" fill-rule="nonzero" />
        <path d="M3100 908C 3109 879 3123 831 3130 803C 3141 760 3148 750 3165 750C 3182 750 3190 762 3206 813L3206 813L3226 875L3246 815C 3261 771 3272 754 3286 752C 3304 749 3310 762 3334 849C 3350 904 3367 951 3374 954C 3380 956 3370 959 3352 959C 3334 960 3321 956 3324 951C 3331 940 3299 800 3289 800C 3286 800 3273 827 3261 861C 3248 895 3233 919 3227 917C 3221 915 3204 885 3191 850L3191 850L3167 786L3149 851C 3139 886 3129 925 3128 938C 3126 953 3119 960 3104 960C 3083 960 3083 960 3100 908z" stroke="none" fill="#000000" fill-rule="nonzero" />
        <path d="M3467 940C 3431 912 3415 859 3430 816C 3446 766 3475 745 3525 745C 3575 745 3604 766 3620 816C 3643 884 3592 960 3525 960C 3507 960 3481 951 3467 940zM3575 909C 3622 820 3546 712 3485 780C 3472 794 3466 817 3466 851C 3465 894 3469 905 3492 925C 3525 954 3555 948 3575 909z" stroke="none" fill="#000000" fill-rule="nonzero" />
        <path d="M3688 856C 3691 765 3694 750 3708 750C 3721 750 3725 759 3725 787C 3725 837 3744 839 3777 791C 3797 762 3812 751 3830 751C 3844 750 3850 754 3845 758C 3839 762 3824 779 3812 796C 3791 827 3791 827 3810 845C 3834 866 3837 922 3815 940C 3807 946 3775 954 3743 957L3743 957L3685 962L3688 856zM3788 928C 3807 909 3802 873 3778 856C 3740 829 3730 836 3730 890C 3730 936 3732 940 3753 940C 3766 940 3781 935 3788 928z" stroke="none" fill="#000000" fill-rule="nonzero" />
        <path d="M3905 855C 3905 757 3906 750 3925 750C 3943 750 3945 756 3942 798L3942 798L3939 845L3982 797C 4006 771 4033 750 4043 750C 4058 750 4052 762 4016 803L4016 803L3971 857L4018 908L4066 960L4038 960C 4022 960 4011 956 4014 952C 4020 942 3963 870 3949 870C 3936 870 3938 934 3952 948C 3961 957 3957 960 3935 960L3935 960L3905 960L3905 855z" stroke="none" fill="#000000" fill-rule="nonzero" />
        <path d="M2435 850C 2435 768 2438 750 2450 750C 2462 750 2465 763 2462 822L2462 822L2460 895L2527 822C 2565 782 2601 750 2608 750C 2617 750 2620 777 2620 850C 2620 932 2617 950 2605 950C 2593 950 2590 935 2590 878L2590 878L2589 805L2524 878C 2488 917 2453 950 2447 950C 2439 950 2435 919 2435 850z" stroke="none" fill="#000000" fill-rule="nonzero" />
	</g>
</g>
</svg>