<?xml version="1.0" encoding="iso-8859-1"?>
<!-- Generator: Adobe Illustrator 21.0.0, SVG Export Plug-In . SVG Version: 6.00 Build 0)  -->
<svg version="1.1" id="Capa_1" xmlns="http://www.w3.org/2000/svg" xmlns:xlink="http://www.w3.org/1999/xlink" x="0px" y="0px"
	 viewBox="0 0 512 512" style="enable-background:new 0 0 512 512;" xml:space="preserve">
<g id="XMLID_235_">
	<path id="XMLID_236_" d="M243.632,313.364c-0.451-0.451-0.7-1.051-0.7-1.688v-57.089c0-4.143-3.358-7.5-7.5-7.5s-7.5,3.357-7.5,7.5
		v57.089c0,4.645,1.809,9.011,5.093,12.296l24.021,24.021c3.284,3.284,7.651,5.093,12.295,5.093h22.325c4.142,0,7.5-3.357,7.5-7.5
		s-3.358-7.5-7.5-7.5h-22.325c-0.638,0-1.238-0.248-1.689-0.7L243.632,313.364z"/>
	<path id="XMLID_237_" d="M444.86,393.44c-3.289-2.517-7.996-1.894-10.515,1.396c-9.318,12.169-19.878,23.266-31.428,33.169v-28.693
		c0-4.645-1.809-9.011-5.093-12.296l-43.837-43.838c-3.284-3.283-7.65-5.092-12.295-5.092h-7.358c-4.142,0-7.5,3.357-7.5,7.5
		s3.358,7.5,7.5,7.5h7.358c0.639,0,1.238,0.248,1.689,0.699l43.837,43.838c0.451,0.451,0.7,1.051,0.7,1.688v40.481
		c-13.135,9.414-27.298,17.384-42.244,23.686c-3.816,1.609-5.606,6.008-3.997,9.825c1.208,2.865,3.988,4.588,6.914,4.588
		c0.971,0,1.959-0.19,2.911-0.591c37.281-15.72,70.046-41.082,94.752-73.346C448.773,400.667,448.148,395.958,444.86,393.44z"/>
	<path id="XMLID_238_" d="M315.856,473.569c-17.846,4.624-36.324,6.969-54.922,6.969c-113.568,0-207.495-86.64-217.406-198.742
		c2.736,0.447,5.539,0.689,8.4,0.689c24.681,0,45.381-17.313,50.629-40.429h5.799c4.142,0,7.5-3.357,7.5-7.5s-3.358-7.5-7.5-7.5
		h-4.624c-1.027-15.336-8.774-29.376-21.244-38.463c-2.877-9.198-9.804-16.618-18.681-20.18
		c9.035-18.938,20.743-36.412,34.653-51.906l13.258,36.754c2.479,6.872,9.052,11.488,16.356,11.488h67.572
		c0.638,0,1.238,0.248,1.689,0.7l29.895,29.895c0.444,0.444,0.699,1.06,0.699,1.688v15.935c0,4.143,3.358,7.5,7.5,7.5
		s7.5-3.357,7.5-7.5v-15.935c0-4.645-1.809-9.012-5.093-12.296l-29.895-29.895c-3.284-3.284-7.651-5.093-12.295-5.093h-67.572
		c-1.003,0-1.906-0.635-2.247-1.578l-15.747-43.653c15.229-14.572,32.565-26.985,51.522-36.69c3.687-1.888,5.146-6.406,3.258-10.094
		s-6.407-5.146-10.094-3.258c-47.06,24.092-84.806,63.762-106.533,111.861c-12.698,1.466-23.159,10.384-26.871,22.261
		C7.963,198.373,0,213.907,0,230.556c0,20.05,11.429,37.469,28.108,46.119c7.491,122.923,109.286,218.862,232.827,218.862
		c19.867,0,39.611-2.506,58.685-7.449c4.01-1.039,6.418-5.132,5.379-9.142C323.959,474.937,319.865,472.523,315.856,473.569z
		 M88.3,224.215c-3.04-2.994-6.44-5.616-10.123-7.792c1.569-2.245,2.865-4.695,3.822-7.309
		C85.192,213.588,87.35,218.74,88.3,224.215z M51.929,181.118c9.38,0,17.012,7.632,17.012,17.013s-7.632,17.013-17.012,17.013
		s-17.012-7.632-17.012-17.013S42.548,181.118,51.929,181.118z M25.659,216.392c-3.686,2.158-7.065,4.756-10.085,7.722
		c0.96-5.429,3.118-10.542,6.288-14.989C22.815,211.723,24.101,214.159,25.659,216.392z M18.337,245.867
		c3.914-8.598,10.926-15.337,19.708-18.895c4.202,2.031,8.912,3.171,13.884,3.171c4.968,0,9.675-1.138,13.875-3.166
		c8.685,3.536,15.806,10.366,19.714,18.896c-5.831,12.737-18.689,21.612-33.589,21.612
		C37.027,267.485,24.167,258.607,18.337,245.867z"/>
	<path id="XMLID_245_" d="M166.264,429.604c23.971,0,44.19-16.33,50.143-38.447c0.138,0.008,0.274,0.021,0.413,0.021h6
		c4.142,0,7.5-3.357,7.5-7.5s-3.358-7.5-7.5-7.5h-4.674c-0.461-16.108-8.311-30.984-21.321-40.465
		c-4.068-13.008-16.23-22.476-30.561-22.476c-14.332,0-26.494,9.468-30.562,22.477c-13.389,9.767-21.367,25.367-21.367,41.96
		C114.335,406.309,137.63,429.604,166.264,429.604z M140.016,363.543c-3.682,2.178-7.083,4.804-10.123,7.8
		c0.952-5.456,3.124-10.605,6.311-15.083C137.159,358.865,138.451,361.306,140.016,363.543z M166.264,414.604
		c-14.9,0-27.757-8.875-33.589-21.611c3.904-8.513,11.031-15.366,19.705-18.901c4.202,2.031,8.912,3.17,13.884,3.17
		c4.968,0,9.674-1.137,13.874-3.166c8.685,3.536,15.807,10.366,19.715,18.896C194.021,405.729,181.164,414.604,166.264,414.604z
		 M202.632,371.318c-3.038-2.989-6.437-5.607-10.117-7.781c1.568-2.244,2.862-4.692,3.819-7.303
		C199.524,360.703,201.681,365.85,202.632,371.318z M166.264,328.238c9.38,0,17.012,7.632,17.012,17.013
		c0,9.38-7.632,17.012-17.012,17.012c-9.381,0-17.013-7.632-17.013-17.012C149.251,335.87,156.883,328.238,166.264,328.238z"/>
	<path id="XMLID_251_" d="M512,155.52c0-16.681-7.954-32.188-21.368-41.963c-4.068-13.008-16.23-22.475-30.561-22.475
		c-11.068,0-20.841,5.648-26.592,14.212c-22.701-24.919-50.727-44.841-81.655-57.94c-2.647-3.122-5.677-5.952-9.059-8.417
		c-4.068-13.008-16.23-22.475-30.561-22.475c-10.912,0-20.562,5.492-26.344,13.854c-8.248-0.875-16.608-1.344-24.926-1.344
		c-25.708,0-50.978,4.159-75.108,12.361c-3.922,1.333-6.021,5.593-4.688,9.515c1.061,3.122,3.977,5.088,7.101,5.088
		c0.8,0,1.614-0.129,2.414-0.401c22.573-7.672,46.219-11.563,70.281-11.563c4.765,0,9.545,0.165,14.308,0.472
		c-9.497,9.625-14.967,22.658-14.967,36.456c0,26.123,19.392,47.792,44.534,51.394c-0.064,0.394-0.106,0.794-0.106,1.206v6
		c0,4.143,3.358,7.5,7.5,7.5s7.5-3.357,7.5-7.5v-6c0-0.412-0.042-0.813-0.106-1.206c25.143-3.601,44.534-25.271,44.534-51.394
		c0-4.009-0.479-7.945-1.362-11.757c5.776,3.058,11.417,6.376,16.9,9.941v96.093c0,0.658-0.267,1.303-0.732,1.769l-8.968,8.968
		c-3.306,3.305-5.126,7.699-5.126,12.374v15.081c0,4.143,3.358,7.5,7.5,7.5s7.5-3.357,7.5-7.5v-15.081
		c0-0.667,0.26-1.295,0.732-1.768l8.968-8.968c3.305-3.306,5.125-7.7,5.125-12.375V89.772c10.768,8.358,20.778,17.711,29.832,27.942
		c-10.339,9.748-16.36,23.422-16.36,37.805c0,25.373,18.297,46.54,42.386,51.035v5.4c0,4.143,3.358,7.5,7.5,7.5s7.5-3.357,7.5-7.5
		v-4.794c2.172-0.228,4.3-0.602,6.385-1.09c4.844,18.244,7.304,37.119,7.304,56.185c0,16.68-1.934,33.267-5.673,49.405
		l-30.695-30.696c-2.57-2.57-5.823-4.255-9.406-4.872l-45.52-7.835c-0.512-0.088-0.976-0.328-1.344-0.696l-6.003-6.003
		c-0.465-0.465-0.732-1.109-0.732-1.768v-3.825c0-4.143-3.358-7.5-7.5-7.5s-7.5,3.357-7.5,7.5v3.825
		c0,4.675,1.821,9.07,5.126,12.375l6.003,6.003c2.57,2.57,5.823,4.255,9.406,4.872l45.52,7.835c0.512,0.088,0.976,0.328,1.344,0.696
		l36.742,36.742c-4.334,13.692-9.997,26.955-16.966,39.538c-2.007,3.624-0.696,8.188,2.927,10.194
		c1.152,0.639,2.397,0.94,3.627,0.94c2.639,0,5.199-1.396,6.568-3.867c19.022-34.347,29.077-73.374,29.077-112.864
		c0-20.962-2.782-41.715-8.265-61.745C501.504,191.529,512,174.733,512,155.52z M342.274,59.459
		c3.189,4.469,5.347,9.615,6.298,15.083c-3.038-2.989-6.436-5.609-10.116-7.782C340.024,64.518,341.318,62.07,342.274,59.459z
		 M312.204,31.462c9.38,0,17.012,7.632,17.012,17.013s-7.632,17.013-17.012,17.013s-17.012-7.632-17.012-17.013
		S302.824,31.462,312.204,31.462z M275.854,74.424c0.963-5.417,3.119-10.517,6.283-14.954c0.952,2.594,2.236,5.027,3.791,7.259
		C282.249,68.88,278.872,71.468,275.854,74.424z M312.204,117.83c-14.902,0-27.762-8.878-33.592-21.618
		c3.915-8.603,10.921-15.34,19.705-18.896c4.203,2.032,8.914,3.172,13.887,3.172c4.968,0,9.676-1.138,13.876-3.167
		c8.684,3.537,15.806,10.367,19.714,18.896C339.962,108.954,327.104,117.83,312.204,117.83z M496.422,149.051
		c-3.018-2.958-6.401-5.541-10.082-7.693c1.56-2.237,2.848-4.677,3.801-7.278C493.309,138.518,495.461,143.624,496.422,149.051z
		 M460.071,106.083c9.38,0,17.012,7.632,17.012,17.013c0,9.38-7.632,17.012-17.012,17.012s-17.012-7.632-17.012-17.012
		C443.059,113.714,450.691,106.083,460.071,106.083z M430.013,134.11c0.952,2.59,2.235,5.019,3.789,7.247
		c-3.684,2.156-7.065,4.75-10.083,7.714C424.682,143.664,426.85,138.557,430.013,134.11z M460.071,192.449
		c-14.902,0-27.761-8.878-33.591-21.617c3.915-8.602,10.924-15.34,19.708-18.895c4.202,2.031,8.912,3.171,13.884,3.171
		c4.971,0,9.682-1.14,13.884-3.17c8.784,3.555,15.793,10.293,19.708,18.895C487.833,183.571,474.973,192.449,460.071,192.449z"/>
	<path id="XMLID_265_" d="M285.358,376.178h-10.423c-4.142,0-7.5,3.357-7.5,7.5s3.358,7.5,7.5,7.5h10.423c4.142,0,7.5-3.357,7.5-7.5
		S289.5,376.178,285.358,376.178z"/>
	<path id="XMLID_266_" d="M243.667,376.178c-4.142,0-7.5,3.357-7.5,7.5s3.358,7.5,7.5,7.5h10.423c4.142,0,7.5-3.357,7.5-7.5
		s-3.358-7.5-7.5-7.5H243.667z"/>
	<path id="XMLID_267_" d="M298.704,383.678c0,4.143,3.358,7.5,7.5,7.5h6c4.142,0,7.5-3.357,7.5-7.5v-6c0-4.143-3.358-7.5-7.5-7.5
		c-3.673,0-6.729,2.64-7.375,6.126C301.344,376.95,298.704,380.005,298.704,383.678z"/>
	<path id="XMLID_268_" d="M312.204,182.726c4.142,0,7.5-3.357,7.5-7.5v-11.909c0-4.143-3.358-7.5-7.5-7.5s-7.5,3.357-7.5,7.5v11.909
		C304.704,179.369,308.062,182.726,312.204,182.726z"/>
	<path id="XMLID_269_" d="M304.704,282.407c0,4.143,3.358,7.5,7.5,7.5s7.5-3.357,7.5-7.5v-11.909c0-4.143-3.358-7.5-7.5-7.5
		s-7.5,3.357-7.5,7.5V282.407z"/>
	<path id="XMLID_270_" d="M304.704,246.679c0,4.143,3.358,7.5,7.5,7.5s7.5-3.357,7.5-7.5v-11.908c0-4.143-3.358-7.5-7.5-7.5
		s-7.5,3.357-7.5,7.5V246.679z"/>
	<path id="XMLID_271_" d="M304.704,210.953c0,4.143,3.358,7.5,7.5,7.5s7.5-3.357,7.5-7.5v-11.908c0-4.143-3.358-7.5-7.5-7.5
		s-7.5,3.357-7.5,7.5V210.953z"/>
	<path id="XMLID_272_" d="M304.704,318.133c0,4.143,3.358,7.5,7.5,7.5s7.5-3.357,7.5-7.5v-11.909c0-4.143-3.358-7.5-7.5-7.5
		s-7.5,3.357-7.5,7.5V318.133z"/>
	<path id="XMLID_273_" d="M304.704,353.86c0,4.143,3.358,7.5,7.5,7.5s7.5-3.357,7.5-7.5v-11.909c0-4.143-3.358-7.5-7.5-7.5
		s-7.5,3.357-7.5,7.5V353.86z"/>
	<path id="XMLID_274_" d="M420.631,242.056c4.142,0,7.5-3.357,7.5-7.5s-3.358-7.5-7.5-7.5h-12c-4.142,0-7.5,3.357-7.5,7.5
		s3.358,7.5,7.5,7.5H420.631z"/>
	<path id="XMLID_275_" d="M372.631,242.056h12c4.142,0,7.5-3.357,7.5-7.5s-3.358-7.5-7.5-7.5h-12c-4.142,0-7.5,3.357-7.5,7.5
		S368.489,242.056,372.631,242.056z"/>
	<path id="XMLID_276_" d="M348.631,242.056c4.142,0,7.5-3.357,7.5-7.5s-3.358-7.5-7.5-7.5h-12c-4.142,0-7.5,3.357-7.5,7.5
		s3.358,7.5,7.5,7.5H348.631z"/>
	<path id="XMLID_277_" d="M456.631,242.056c4.142,0,7.5-3.357,7.5-7.5s-3.358-7.5-7.5-7.5h-12c-4.142,0-7.5,3.357-7.5,7.5
		s3.358,7.5,7.5,7.5H456.631z"/>
	<path id="XMLID_278_" d="M180.357,242.056c4.142,0,7.5-3.357,7.5-7.5s-3.358-7.5-7.5-7.5h-12c-4.142,0-7.5,3.357-7.5,7.5
		s3.358,7.5,7.5,7.5H180.357z"/>
	<path id="XMLID_279_" d="M252.357,227.056h-12c-4.142,0-7.5,3.357-7.5,7.5s3.358,7.5,7.5,7.5h12c4.142,0,7.5-3.357,7.5-7.5
		S256.5,227.056,252.357,227.056z"/>
	<path id="XMLID_280_" d="M144.357,242.056c4.142,0,7.5-3.357,7.5-7.5s-3.358-7.5-7.5-7.5h-12c-4.142,0-7.5,3.357-7.5,7.5
		s3.358,7.5,7.5,7.5H144.357z"/>
	<path id="XMLID_281_" d="M216.357,242.056c4.142,0,7.5-3.357,7.5-7.5s-3.358-7.5-7.5-7.5h-12c-4.142,0-7.5,3.357-7.5,7.5
		s3.358,7.5,7.5,7.5H216.357z"/>
	<path id="XMLID_282_" d="M276.357,242.056h12c4.142,0,7.5-3.357,7.5-7.5s-3.358-7.5-7.5-7.5h-12c-4.142,0-7.5,3.357-7.5,7.5
		S272.215,242.056,276.357,242.056z"/>
</g>
<g>
</g>
<g>
</g>
<g>
</g>
<g>
</g>
<g>
</g>
<g>
</g>
<g>
</g>
<g>
</g>
<g>
</g>
<g>
</g>
<g>
</g>
<g>
</g>
<g>
</g>
<g>
</g>
<g>
</g>
</svg>
